<svg width="27" height="26" viewBox="0 0 27 26" fill="none" xmlns="http://www.w3.org/2000/svg">
<path d="M19.0875 12.5444L19.1593 12.8407L19.4556 12.9125L21.8783 13.5L19.4556 14.0875L19.1593 14.1593L19.0875 14.4556L18.5 16.8783L17.9125 14.4556L17.8407 14.1593L17.5444 14.0875L15.1217 13.5L17.5444 12.9125L17.8407 12.8407L17.9125 12.5444L18.5 10.1217L19.0875 12.5444Z" stroke="black"/>
<path d="M23.6971 2.93476L23.769 3.23102L24.0652 3.30285L24.8783 3.5L24.0652 3.69715L23.769 3.76898L23.6971 4.06524L23.5 4.87826L23.3029 4.06524L23.231 3.76898L22.9348 3.69715L22.1217 3.5L22.9348 3.30285L23.231 3.23102L23.3029 2.93476L23.5 2.12174L23.6971 2.93476Z" stroke="black"/>
<mask id="path-3-inside-1_693_17" fill="white">
<path fill-rule="evenodd" clip-rule="evenodd" d="M18.5241 23.5773C16.0702 23.4322 13.5351 22.3063 11.4224 20.2007C6.89462 15.6879 6.02173 8.38361 9.47276 3.88614C9.6779 3.61881 9.89369 3.36741 10.1191 3.13194C4.66521 3.96836 0.488159 8.68059 0.488159 14.3684C0.488159 20.647 5.57797 25.7368 11.8566 25.7368C14.3474 25.7368 16.6511 24.9358 18.5241 23.5773Z"/>
</mask>
<path d="M18.5241 23.5773L19.1113 24.3868L21.376 22.7442L18.5832 22.579L18.5241 23.5773ZM11.4224 20.2007L10.7165 20.9089L11.4224 20.2007ZM9.47276 3.88614L10.2661 4.4949V4.4949L9.47276 3.88614ZM10.1191 3.13194L10.8415 3.82346L12.8768 1.69733L9.96751 2.1435L10.1191 3.13194ZM18.5832 22.579C16.3949 22.4497 14.0842 21.4417 12.1283 19.4924L10.7165 20.9089C12.986 23.1709 15.7455 24.4147 18.4651 24.5756L18.5832 22.579ZM12.1283 19.4924C7.88829 15.2664 7.17613 8.52186 10.2661 4.4949L8.67941 3.27738C4.86734 8.24537 5.90095 16.1094 10.7165 20.9089L12.1283 19.4924ZM10.2661 4.4949C10.4494 4.2561 10.6415 4.03236 10.8415 3.82346L9.39674 2.44043C9.14589 2.70246 8.90643 2.98152 8.67941 3.27738L10.2661 4.4949ZM1.48816 14.3684C1.48816 9.18183 5.29741 4.88309 10.2707 4.12039L9.96751 2.1435C4.03301 3.05362 -0.511841 8.17935 -0.511841 14.3684H1.48816ZM11.8566 24.7368C6.13026 24.7368 1.48816 20.0947 1.48816 14.3684H-0.511841C-0.511841 21.1993 5.02569 26.7368 11.8566 26.7368V24.7368ZM17.937 22.7678C16.229 24.0066 14.1295 24.7368 11.8566 24.7368V26.7368C14.5652 26.7368 17.0732 25.865 19.1113 24.3868L17.937 22.7678Z" fill="black" mask="url(#path-3-inside-1_693_17)"/>
</svg>
